<svg width="573" height="868" viewBox="0 0 573 868" fill="none" xmlns="http://www.w3.org/2000/svg">
<g id="RSVP">
<g id="letter">
<path d="M195.924 404.447C172.302 340.175 137.145 316.004 96.4945 307.215C172.852 301.721 233.278 273.156 233.278 190.207C233.278 96.8205 156.921 72.1006 66.8305 72.1006H0.910645C3.65731 123.188 3.65731 141.866 3.65731 170.98V412.687C3.65731 441.801 3.65731 460.478 0.910645 511.566H20.1373C17.3906 460.478 17.3906 441.801 17.3906 412.687V308.313H44.8572C106.382 308.313 152.526 325.892 183.838 409.391C209.657 478.057 229.433 511.566 304.142 511.566V506.073C250.857 506.073 225.588 485.748 195.924 404.447ZM17.3906 77.5939H66.8305C140.441 77.5939 216.798 99.5672 216.798 190.207C216.798 280.847 140.441 302.82 66.8305 302.82H17.3906V77.5939Z" fill="white"/>
<path d="M195.924 404.447C172.302 340.175 137.145 316.004 96.4945 307.215C172.852 301.721 233.278 273.156 233.278 190.207C233.278 96.8205 156.921 72.1006 66.8305 72.1006H0.910645C3.65731 123.188 3.65731 141.866 3.65731 170.98V412.687C3.65731 441.801 3.65731 460.478 0.910645 511.566H20.1373C17.3906 460.478 17.3906 441.801 17.3906 412.687V308.313H44.8572C106.382 308.313 152.526 325.892 183.838 409.391C209.657 478.057 229.433 511.566 304.142 511.566V506.073C250.857 506.073 225.588 485.748 195.924 404.447ZM17.3906 77.5939H66.8305C140.441 77.5939 216.798 99.5672 216.798 190.207C216.798 280.847 140.441 302.82 66.8305 302.82H17.3906V77.5939Z" fill="#BDDFD9"/>
</g>
<g id="letter_2">
<path d="M402.946 462.074C463.928 462.074 514.473 428.011 514.473 358.239C514.473 297.806 468.873 265.391 386.464 196.717C329.327 148.92 289.222 127.494 289.222 75.3018C289.222 32.9986 319.988 6.07839 371.081 6.07839C440.305 6.07839 469.422 56.0731 473.818 102.771L495.793 97.2775C469.972 36.8444 429.866 0.584473 371.081 0.584473C313.944 0.584473 278.234 30.2516 278.234 79.6969C278.234 129.142 308.451 148.92 375.476 204.409C451.292 267.589 503.485 303.299 503.485 358.239C503.485 426.363 457.885 456.58 402.946 456.58C330.976 456.58 274.388 398.344 271.092 310.442L249.116 315.935C274.938 426.363 335.92 462.074 402.946 462.074Z" fill="white"/>
<path d="M402.946 462.074C463.928 462.074 514.473 428.011 514.473 358.239C514.473 297.806 468.873 265.391 386.464 196.717C329.327 148.92 289.222 127.494 289.222 75.3018C289.222 32.9986 319.988 6.07839 371.081 6.07839C440.305 6.07839 469.422 56.0731 473.818 102.771L495.793 97.2775C469.972 36.8444 429.866 0.584473 371.081 0.584473C313.944 0.584473 278.234 30.2516 278.234 79.6969C278.234 129.142 308.451 148.92 375.476 204.409C451.292 267.589 503.485 303.299 503.485 358.239C503.485 426.363 457.885 456.58 402.946 456.58C330.976 456.58 274.388 398.344 271.092 310.442L249.116 315.935C274.938 426.363 335.92 462.074 402.946 462.074Z" fill="#BDDFD9"/>
</g>
<g id="letter_3">
<path d="M383.142 735.13C380.699 689.697 380.699 673.087 380.699 647.196V554.376H424.667C504.785 554.376 572.69 532.392 572.69 449.343C572.69 366.293 504.785 344.31 424.667 344.31H366.044C368.486 389.742 368.486 406.352 368.486 432.244V647.196C368.486 673.087 368.486 689.697 366.044 735.13H383.142ZM380.699 349.195H424.667C490.129 349.195 558.034 368.736 558.034 449.343C558.034 529.949 490.129 549.49 424.667 549.49H380.699V349.195Z" fill="white"/>
<path d="M383.142 735.13C380.699 689.697 380.699 673.087 380.699 647.196V554.376H424.667C504.785 554.376 572.69 532.392 572.69 449.343C572.69 366.293 504.785 344.31 424.667 344.31H366.044C368.486 389.742 368.486 406.352 368.486 432.244V647.196C368.486 673.087 368.486 689.697 366.044 735.13H383.142ZM380.699 349.195H424.667C490.129 349.195 558.034 368.736 558.034 449.343C558.034 529.949 490.129 549.49 424.667 549.49H380.699V349.195Z" fill="#BDDFD9"/>
</g>
<g id="letter_4">
<path d="M211.146 868C208.128 860.957 207.625 856.43 209.134 849.891L307.729 512.354C313.262 493.742 314.269 485.191 323.826 465.572H313.766C312.256 485.191 307.729 493.742 302.196 512.858L203.098 851.903L105.509 512.858C99.9758 493.742 96.9576 485.191 95.4485 465.572H74.321C83.8787 485.191 86.8969 493.742 92.4303 512.858L194.546 868H211.146Z" fill="white"/>
<path d="M211.146 868C208.128 860.957 207.625 856.43 209.134 849.891L307.729 512.354C313.262 493.742 314.269 485.191 323.826 465.572H313.766C312.256 485.191 307.729 493.742 302.196 512.858L203.098 851.903L105.509 512.858C99.9758 493.742 96.9576 485.191 95.4485 465.572H74.321C83.8787 485.191 86.8969 493.742 92.4303 512.858L194.546 868H211.146Z" fill="#BDDFD9"/>
</g>
</g>
</svg>
